<svg version="1.1" id="Layer_1" xmlns="http://www.w3.org/2000/svg" xmlns:xlink="http://www.w3.org/1999/xlink" x="0px" y="0px"
	 width="100%" viewBox="0 0 1024 1024" enable-background="new 0 0 1024 1024" xml:space="preserve">
<path fill="#000000" opacity="1.000000" stroke="none" 
	d="
M547.865295,205.701416 
	C567.901123,208.539124 587.214539,212.455124 606.127197,218.445023 
	C641.803345,229.744080 674.248352,246.974197 703.259888,270.578003 
	C706.527832,273.236755 708.407227,273.477264 711.476624,270.380707 
	C720.036682,261.744812 728.918518,253.426254 737.727783,245.039581 
	C743.393188,239.645996 747.780029,240.817429 749.273315,248.499069 
	C752.816711,266.726654 756.016724,285.021088 759.340149,303.291351 
	C761.832397,316.992554 764.271484,330.703552 766.791199,344.399689 
	C768.207275,352.096954 764.855408,355.313477 757.079651,353.712036 
	C727.181396,347.554474 697.275879,341.432617 667.375427,335.285583 
	C666.237122,335.051575 665.118774,334.713379 663.999878,334.393219 
	C655.458252,331.949036 654.228760,327.150452 660.640930,320.924316 
	C666.139771,315.584961 671.666626,310.268555 677.341553,305.118774 
	C680.660217,302.107208 681.052124,300.102325 676.984741,297.068237 
	C644.194702,272.608063 607.961548,255.879837 567.894470,247.416718 
	C542.453918,242.043076 516.695740,241.103378 490.921875,242.584473 
	C452.905853,244.769073 417.067291,255.147110 383.475555,273.301605 
	C326.261658,304.222656 285.663025,349.961029 260.902679,409.936859 
	C251.267197,433.276459 244.903931,457.566162 242.534241,482.639160 
	C236.252472,549.104004 251.545441,610.166199 290.331940,664.856140 
	C332.600708,724.456177 390.296967,760.463867 461.434113,775.339050 
	C484.984497,780.263550 508.944672,781.562073 532.905762,779.508667 
	C588.690308,774.728088 638.376526,754.789368 681.717957,719.043945 
	C719.987000,687.482178 748.302673,648.944702 765.221436,602.221497 
	C772.320740,582.615784 776.534485,562.388672 778.835327,541.627502 
	C780.936279,522.669861 781.021973,503.777008 779.543152,484.851471 
	C778.872742,476.271088 777.503662,467.722870 776.025269,459.234314 
	C774.556702,450.802246 776.798950,444.049469 783.469116,439.531708 
	C790.044739,435.077972 796.636047,435.985443 803.226868,439.681793 
	C807.204468,441.912598 809.029236,445.673431 810.163208,449.683868 
	C813.604309,461.853882 815.033142,474.372101 816.414734,486.917145 
	C817.623291,497.891266 817.536682,508.871124 817.286438,519.839661 
	C815.926270,579.453796 799.127563,634.361877 764.627258,683.081787 
	C716.412170,751.169189 651.731995,795.255798 569.521606,812.043945 
	C543.730469,817.310730 517.520813,818.351562 491.106659,816.542725 
	C437.242889,812.854248 387.795502,796.204346 343.067108,766.364380 
	C275.780182,721.474792 232.469971,659.178650 212.103531,581.024353 
	C204.489929,551.807861 202.940155,521.805603 204.934357,491.870453 
	C209.038925,430.256287 229.423843,374.188232 266.589203,324.804596 
	C310.046021,267.061188 367.337036,229.670883 437.541809,212.375488 
	C455.767792,207.885391 474.345459,205.640335 493.136017,204.362839 
	C508.172668,203.340546 523.064087,204.295761 538.016907,204.679993 
	C541.155212,204.760651 544.281006,205.332718 547.865295,205.701416 
z"/>
<path fill="#000000" opacity="1.000000" stroke="none" 
	d="
M611.608521,536.474243 
	C596.843811,561.822205 575.373474,577.276123 546.632385,581.044556 
	C513.866638,585.340576 482.714722,567.019531 472.784485,542.109985 
	C460.171112,510.470001 477.854218,473.515961 509.897705,464.302551 
	C521.307312,461.022003 532.011719,462.998505 542.253662,468.112366 
	C549.346863,471.653992 551.751282,479.859039 548.381531,486.882843 
	C545.475708,492.939575 538.687012,495.385315 531.826233,492.847260 
	C515.979919,486.985046 503.867004,493.034607 498.376434,509.553009 
	C492.970856,525.815552 500.155487,542.261963 515.784790,549.402649 
	C535.422241,558.374573 558.794739,553.765930 575.414917,538.252075 
	C601.965881,513.468506 601.720886,473.398346 578.355103,446.872803 
	C559.489990,425.456512 535.272034,418.219025 507.319092,421.107758 
	C465.692444,425.409546 436.279816,457.827118 426.569183,497.213776 
	C420.693359,521.046204 420.992645,545.007385 432.263916,567.341370 
	C449.836609,602.161499 478.460052,623.827515 517.085144,628.173706 
	C562.899353,633.328979 602.291809,617.795776 633.570374,583.320129 
	C651.293335,563.785461 663.330750,541.151367 668.145447,515.177002 
	C675.887817,473.407501 667.345581,435.043274 641.437317,401.206390 
	C615.691040,367.580994 581.024597,348.370728 539.411133,342.426544 
	C489.898560,335.353912 445.323822,347.739136 406.692017,379.758057 
	C377.044739,404.330475 357.327789,435.293854 348.849640,473.094391 
	C348.087708,476.491638 347.779999,480.001526 346.869110,483.352509 
	C344.529053,491.961334 337.697571,496.109650 329.438934,494.176544 
	C322.456329,492.542145 317.474548,484.275574 318.929321,476.536041 
	C324.968475,444.407440 337.849792,415.304077 357.686554,389.307251 
	C377.682770,363.101501 402.567780,342.957581 432.723083,329.564178 
	C451.196075,321.359467 470.474274,316.083344 490.624512,313.507721 
	C528.013000,308.728729 563.470215,315.485992 597.534790,330.527863 
	C635.711853,347.385651 662.858887,375.774963 681.293274,412.835297 
	C695.430542,441.256622 700.650452,471.571259 698.133850,502.945679 
	C695.318115,538.048950 682.446350,569.428406 659.641418,596.504089 
	C633.864502,627.108398 601.869568,647.407288 562.218506,654.736511 
	C549.620422,657.065125 536.898499,658.623108 524.055603,656.513062 
	C520.505432,655.929871 519.277527,657.492615 519.317627,660.942749 
	C519.429688,670.607788 519.384399,680.275208 519.335449,689.941345 
	C519.293701,698.172241 514.067871,703.342285 505.892303,703.355591 
	C498.011719,703.368408 491.731537,697.438049 491.677032,689.725403 
	C491.598114,678.559570 491.442780,667.386536 491.767426,656.229614 
	C491.892426,651.934570 490.352753,650.020325 486.422821,648.747375 
	C457.479584,639.371948 434.928284,621.294250 417.191711,596.965820 
	C405.264404,580.605591 398.941803,562.040283 396.583374,542.010559 
	C392.761108,509.548401 398.075348,478.734161 415.438324,450.956573 
	C435.174805,419.381836 463.140045,398.980316 500.772003,393.493713 
	C534.213745,388.618073 564.356873,396.103699 589.812317,418.758545 
	C612.231323,438.710999 624.108215,463.845490 623.255371,494.223907 
	C622.839539,509.036560 619.117065,523.134888 611.608521,536.474243 
z"/>
</svg>